<svg width="17" height="20" viewBox="0 0 17 20" fill="none" xmlns="http://www.w3.org/2000/svg">
<path d="M12.5839 0.56737C12.2849 0.25637 11.7629 0.47037 11.7629 0.90137V3.53837C11.7629 4.64437 12.6739 5.55437 13.7799 5.55437C14.4769 5.56237 15.4449 5.56437 16.2669 5.56237C16.6879 5.56137 16.9019 5.05837 16.6099 4.75437C15.5549 3.65737 13.6659 1.69137 12.5839 0.56737Z" fill="#D9D9D9"/>
<path d="M10.918 14.3818H5.47398C5.06298 14.3818 4.72998 14.0488 4.72998 13.6378C4.72998 13.2268 5.06298 12.8928 5.47398 12.8928H10.918C11.329 12.8928 11.663 13.2268 11.663 13.6378C11.663 14.0488 11.329 14.3818 10.918 14.3818Z" fill="white"/>
<path d="M8.85898 9.38768H5.47398C5.06298 9.38768 4.72998 9.05468 4.72998 8.64368C4.72998 8.23268 5.06298 7.89868 5.47398 7.89868H8.85898C9.26998 7.89868 9.60398 8.23268 9.60398 8.64368C9.60398 9.05468 9.26998 9.38768 8.85898 9.38768Z" fill="white"/>
<path opacity="0.4" d="M10.918 14.3818H5.47398C5.06298 14.3818 4.72998 14.0488 4.72998 13.6378C4.72998 13.2268 5.06298 12.8928 5.47398 12.8928H10.918C11.329 12.8928 11.663 13.2268 11.663 13.6378C11.663 14.0488 11.329 14.3818 10.918 14.3818Z" fill="#D9D9D9"/>
<path opacity="0.4" d="M8.85898 9.38768H5.47398C5.06298 9.38768 4.72998 9.05468 4.72998 8.64368C4.72998 8.23268 5.06298 7.89868 5.47398 7.89868H8.85898C9.26998 7.89868 9.60398 8.23268 9.60398 8.64368C9.60398 9.05468 9.26998 9.38768 8.85898 9.38768Z" fill="#D9D9D9"/>
<path fill-rule="evenodd" clip-rule="evenodd" d="M14.6315 7.01693C14.8854 7.01908 15.1111 7.021 15.3088 7.021C15.5313 7.021 15.8565 7.01841 16.179 7.01583C16.3043 7.01484 16.4292 7.01384 16.5475 7.013C16.799 7.012 17 7.217 17 7.471V15.502C17 17.987 15.0058 20 12.5463 20H4.66958C2.09022 20 0 17.889 0 15.284V4.509C0 2.026 1.99517 0 4.46363 0H9.75304C10.0036 0 10.2055 0.206 10.2055 0.459V3.675C10.2055 5.508 11.6987 7.011 13.5146 7.011C13.9333 7.011 14.3056 7.01416 14.6315 7.01693ZM8.85898 9.38762H5.47398C5.06298 9.38762 4.72998 9.05462 4.72998 8.64362C4.72998 8.23262 5.06298 7.89862 5.47398 7.89862H8.85898C9.26998 7.89862 9.60398 8.23262 9.60398 8.64362C9.60398 9.05462 9.26998 9.38762 8.85898 9.38762ZM10.9181 14.3818H5.47408C5.06308 14.3818 4.73008 14.0488 4.73008 13.6378C4.73008 13.2268 5.06308 12.8928 5.47408 12.8928H10.9181C11.3291 12.8928 11.6631 13.2268 11.6631 13.6378C11.6631 14.0488 11.3291 14.3818 10.9181 14.3818Z" fill="#D9D9D9"/>
</svg>
