<svg width="20" height="20" viewBox="0 0 20 20" fill="none" xmlns="http://www.w3.org/2000/svg">
<path d="M19.23 12.3701C19.0358 12.0701 18.7599 11.7701 18.4022 11.5801C18.1161 11.4401 17.9321 11.2101 17.7686 10.9401C17.2474 10.0801 17.554 8.95012 18.4227 8.44012C19.4446 7.87012 19.7716 6.60012 19.1789 5.61012L18.4942 4.43012C17.9117 3.44012 16.6342 3.09012 15.6225 3.67012C14.7232 4.15012 13.5684 3.83012 13.0472 2.98012C12.8837 2.70012 12.7917 2.40012 12.8121 2.10012C12.8428 1.71012 12.7201 1.34012 12.5362 1.04012C12.1581 0.420122 11.4734 0.00012207 10.7171 0.00012207H9.27614C8.53012 0.0201221 7.8454 0.420122 7.46728 1.04012C7.27311 1.34012 7.16069 1.71012 7.18113 2.10012C7.20157 2.40012 7.10959 2.70012 6.94608 2.98012C6.42488 3.83012 5.27007 4.15012 4.38097 3.67012C3.35901 3.09012 2.09178 3.44012 1.49905 4.43012L0.814337 5.61012C0.231821 6.60012 0.558848 7.87012 1.57059 8.44012C2.43925 8.95012 2.74584 10.0801 2.23486 10.9401C2.06112 11.2101 1.87717 11.4401 1.59102 11.5801C1.24356 11.7701 0.936972 12.0701 0.773459 12.3701C0.395334 12.9901 0.415773 13.7701 0.793898 14.4201L1.49905 15.6201C1.87717 16.2601 2.58232 16.6601 3.31813 16.6601C3.6656 16.6601 4.07438 16.5601 4.40141 16.3601C4.6569 16.1901 4.96348 16.1301 5.30073 16.1301C6.31247 16.1301 7.16069 16.9601 7.18113 17.9501C7.18113 19.1001 8.12133 20.0001 9.3068 20.0001H10.6967C11.8719 20.0001 12.8121 19.1001 12.8121 17.9501C12.8428 16.9601 13.691 16.1301 14.7027 16.1301C15.0298 16.1301 15.3364 16.1901 15.6021 16.3601C15.9291 16.5601 16.3277 16.6601 16.6853 16.6601C17.4109 16.6601 18.1161 16.2601 18.4942 15.6201L19.2096 14.4201C19.5775 13.7501 19.6081 12.9901 19.23 12.3701Z" fill="#D9D9D9"/>
<path d="M10.012 12.8302C8.40751 12.8302 7.10962 11.5802 7.10962 10.0102C7.10962 8.44018 8.40751 7.18018 10.012 7.18018C11.6165 7.18018 12.8837 8.44018 12.8837 10.0102C12.8837 11.5802 11.6165 12.8302 10.012 12.8302Z" fill="white"/>
<path opacity="0.4" d="M10.012 12.8302C8.40751 12.8302 7.10962 11.5802 7.10962 10.0102C7.10962 8.44018 8.40751 7.18018 10.012 7.18018C11.6165 7.18018 12.8837 8.44018 12.8837 10.0102C12.8837 11.5802 11.6165 12.8302 10.012 12.8302Z" fill="#D9D9D9"/>
</svg>
