<svg width="15" height="18" viewBox="0 0 15 18" fill="none" xmlns="http://www.w3.org/2000/svg">
<path d="M8.02697 0.0975238V0.106391C8.03583 0.150726 8.03583 0.203928 8.03583 0.25713V6.65023C8.02697 6.6857 8.00037 6.69457 7.97376 6.7123C7.78756 6.80097 7.61022 6.88078 7.42401 6.96058C7.16687 7.07585 6.90086 7.19999 6.64372 7.31526L5.71268 7.74087C5.45554 7.85615 5.19839 7.97142 4.95012 8.08669C4.64864 8.22856 4.3383 8.36156 4.03682 8.50344C3.77968 8.61871 3.52253 8.74284 3.25652 8.85812C3.04372 8.95565 2.83091 9.04432 2.62697 9.14186C2.60923 9.15073 2.5915 9.15959 2.57376 9.15959C2.5649 9.15959 2.5649 9.15959 2.55603 9.15073L2.79544 8.75171C3.25652 7.98915 3.70874 7.23546 4.16982 6.47289C4.65751 5.65713 5.15406 4.84137 5.64174 4.0256C6.09396 3.27191 6.55505 2.51821 7.00726 1.76452C7.33534 1.21477 7.67229 0.665012 8.00037 0.115258C8.00923 0.0975238 8.0181 0.0886568 8.0181 0.0709229H8.02697C8.0181 0.0797898 8.02697 0.0886568 8.02697 0.0975238Z" fill="#8A92B2"/>
<path d="M13.4709 9.15077L13.4797 9.15963L12.1763 9.93106L8.07973 12.3518C8.06199 12.3606 8.04426 12.3695 8.03539 12.3784C8.00879 12.3784 8.00879 12.3518 8.00879 12.3429V12.2631V6.78328C8.00879 6.75668 8.00879 6.72121 8.01766 6.69461C8.02652 6.65914 8.05312 6.66801 8.07973 6.67688C8.195 6.73008 8.31913 6.78328 8.4344 6.83648C8.78022 6.99609 9.12603 7.15569 9.47184 7.30643C9.77332 7.43944 10.0659 7.58131 10.3674 7.71431C10.6689 7.84732 10.9704 7.98919 11.2718 8.1222C11.529 8.23747 11.795 8.36161 12.0521 8.47688C12.3093 8.59215 12.5753 8.71628 12.8324 8.83156C13.0364 8.92023 13.2403 9.01776 13.4443 9.10643C13.4443 9.13303 13.4531 9.1419 13.4709 9.15077Z" fill="#454A75"/>
<path d="M8.0266 17.8847C8.0266 17.8935 8.01773 17.9024 8.01773 17.9113H8.00887C8.00887 17.8935 7.99113 17.8847 7.98227 17.8669C7.43251 17.0955 6.88276 16.3152 6.333 15.5438C5.77438 14.7546 5.2069 13.9566 4.64828 13.1674C4.10739 12.4049 3.55763 11.6334 3.01675 10.8709C2.87488 10.6669 2.733 10.4719 2.59113 10.2679C2.58227 10.2502 2.5734 10.2413 2.55566 10.2147C2.58227 10.2147 2.6 10.2325 2.60887 10.2413C3.38029 10.6935 4.14286 11.1458 4.91428 11.598C5.80098 12.1211 6.67882 12.6443 7.56552 13.1674L8.01773 13.4334C8.03547 13.4512 8.03547 13.4689 8.03547 13.4866V17.7605C8.03547 17.8049 8.03547 17.8492 8.0266 17.8847Z" fill="#8A92B2"/>
<path d="M2.54675 9.16846V9.15959C2.8305 9.03546 3.10537 8.90245 3.38912 8.77831C3.75266 8.60984 4.11621 8.45024 4.47976 8.28176C4.75463 8.15762 5.03838 8.02462 5.31326 7.90048C5.72114 7.71427 6.12015 7.53693 6.52803 7.35073C6.80291 7.22659 7.07779 7.10245 7.36153 6.96945C7.5566 6.88078 7.76055 6.79211 7.95562 6.70344C7.97335 6.69457 7.99995 6.6857 8.00882 6.66797C8.01769 6.66797 8.01769 6.67684 8.00882 6.6857V12.3162C8.00882 12.3428 7.99995 12.3694 8.01769 12.3872C7.99995 12.4138 7.98222 12.3872 7.97335 12.3783C7.89355 12.334 7.81375 12.2896 7.73394 12.2364C6.02261 11.2256 4.30242 10.2059 2.59109 9.19506C2.58222 9.1862 2.56449 9.17733 2.54675 9.16846Z" fill="#62688F"/>
<path d="M13.4532 10.2147H13.462C13.462 10.2325 13.4443 10.2502 13.4354 10.2679C11.8039 12.5645 10.1724 14.8699 8.54085 17.1664C8.37238 17.4059 8.19504 17.6453 8.02657 17.8847C8.0177 17.8758 8.0177 17.8669 8.0177 17.8581V17.8049V13.5044V13.4246C8.39011 13.2029 8.75366 12.9901 9.12607 12.7684C10.5625 11.9172 11.999 11.0748 13.4266 10.2236C13.4354 10.2325 13.4443 10.2236 13.4532 10.2147Z" fill="#62688F"/>
<path d="M8.01773 6.68576V6.66802V6.61482V0.177381C8.01773 0.15078 8.00887 0.133046 8.0266 0.106445C9.8266 3.09462 11.6266 6.07393 13.4177 9.06211C13.4355 9.08871 13.4621 9.12418 13.4709 9.15965C13.3468 9.11531 13.2315 9.05324 13.1163 9.00004C12.9744 8.93797 12.8236 8.86704 12.6818 8.80497C12.5931 8.76063 12.4956 8.72516 12.4069 8.68083C12.2562 8.60989 12.1054 8.54782 11.9547 8.47689C11.866 8.44142 11.7773 8.39709 11.6887 8.35275L11.1034 8.08674C11.0059 8.04241 10.9084 7.99807 10.802 7.95374L10.3764 7.76753C10.2877 7.73206 10.199 7.68773 10.1103 7.64339L9.52512 7.37738C9.42759 7.33305 9.33005 7.28871 9.22365 7.24438L8.79803 7.05817C8.70049 7.01383 8.61182 6.9695 8.51429 6.92516C8.34581 6.84536 8.17734 6.76556 8 6.69462C8.0266 6.68576 8.01773 6.68576 8.01773 6.68576Z" fill="#62688F"/>
</svg>
