<svg width="30" height="30" viewBox="0 0 30 30" fill="none" xmlns="http://www.w3.org/2000/svg">
<path opacity="0.4" d="M22 0H8C2.89333 0 0 2.89333 0 8V22C0 27.0933 2.88 30 8 30H22C27.1067 30 30 27.0933 30 22V8C30 2.89333 27.1067 0 22 0Z" fill="white"/>
<path d="M19.9807 16.0625H16.1243V19.8855C16.1243 20.501 15.6209 21 15 21C14.3791 21 13.8757 20.501 13.8757 19.8855V16.0625H10.0193C9.44013 16.003 9 15.5192 9 14.942C9 14.3647 9.44013 13.8809 10.0193 13.8215H13.8636V10.0105C13.9236 9.43632 14.4117 9 14.994 9C15.5762 9 16.0643 9.43632 16.1243 10.0105V13.8215H19.9807C20.5599 13.8809 21 14.3647 21 14.942C21 15.5192 20.5599 16.003 19.9807 16.0625Z" fill="white"/>
</svg>
